<?xml version="1.0" encoding="UTF-8"?>
<svg width="100px" height="101px" viewBox="0 0 100 101" version="1.1" xmlns="http://www.w3.org/2000/svg" xmlns:xlink="http://www.w3.org/1999/xlink">
    <!-- Generator: Sketch 46.2 (44496) - http://www.bohemiancoding.com/sketch -->
    <title>Logo</title>
    <desc>Created with Sketch.</desc>
    <defs></defs>
    <g id="Page-1" stroke="none" stroke-width="1" fill="none" fill-rule="evenodd">
        <g id="1--Login" transform="translate(-138.000000, -86.000000)" fill-rule="nonzero" fill="#FFFFFF">
            <g id="Logo" transform="translate(138.000000, 86.000000)">
                <path d="M49.2287191,0.00662378358 C48.9434589,0.0815595186 48.6976193,0.262336785 48.5413988,0.512042285 C44.2421366,6.9070015 28.0817923,32.0366405 23.0381983,42.7867476 C19.2633253,50.8351011 20.9863895,59.2019434 26.1130523,65.42223 C31.239715,71.642401 39.7116453,75.8326959 49.4819424,75.9998594 C49.4939806,76.0000469 49.506021,76.0000469 49.5180593,75.9998594 C59.2883598,75.8326959 67.7602901,71.642401 72.8869528,65.42223 C78.0136156,59.2019434 79.7366683,50.8351011 75.9618068,42.7867476 C70.9182591,32.0366405 54.757938,6.9070015 50.4586607,0.512042285 C50.2191101,0.155425559 49.8011654,-0.0392193964 49.3734181,0.00662378358 C49.3252323,0.00361269813 49.2769049,0.00361269813 49.2287191,0.00662378358 L49.2287191,0.00662378358 Z M49.4819424,3.32794537 C54.4078243,10.7434456 69.2288577,33.8824866 73.863729,43.7614255 C77.2682189,51.0200554 75.7324647,58.2950782 71.0782731,63.942018 C66.4303788,69.5814488 58.6310559,73.5231355 49.5181171,73.6893749 C49.5057309,73.6892593 49.4942707,73.6896059 49.4820003,73.6893749 C40.369065,73.5231355 32.5335673,69.5814488 27.885673,63.942018 C23.2314815,58.2950782 21.7319019,51.0200554 25.1363918,43.7614255 C29.7692258,33.886761 44.549292,10.7545359 49.4820003,3.32794537 L49.4819424,3.32794537 Z" id="Shape"></path>
                <path d="M55.485483,26.0174356 C55.1094659,26.0868701 54.7929726,26.3409504 54.6423706,26.6942849 C54.4917685,27.0476194 54.5270513,27.4533 54.7363611,27.7749852 C58.5917133,33.989654 63.3942787,41.6630935 65.4737287,45.6739384 C65.4855997,45.6741246 65.4974729,45.6741246 65.5093439,45.6739384 C67.542186,49.5757513 66.9980035,53.4749127 64.7958978,56.7935043 C62.5937921,60.1120959 58.6494967,62.767589 53.915841,63.7162663 C53.5142824,63.799467 53.1873897,64.0917978 53.0583399,64.4831048 C52.9292902,64.8744118 53.0176968,65.3052233 53.290247,65.6132044 C53.5627972,65.9211855 53.9780683,66.0595286 54.379581,65.9761042 C59.6687886,64.9160878 64.101652,61.9802958 66.68653,58.0848074 C69.2655636,54.1981573 69.8981563,49.2511464 67.5069931,44.6336646 C67.5035685,44.6336646 67.5104176,44.6038211 67.5069931,44.598082 C65.3092936,40.3639852 60.5063059,32.75161 56.662612,26.5557655 C56.418803,26.1486881 55.9507611,25.9347427 55.4854259,26.0176652 L55.485483,26.0174356 Z" id="Shape"></path>
                <path d="M73.1468623,74.0009349 C72.5171948,74.0280372 72.0234381,74.5557055 72.0332686,75.1910111 C72.0430992,75.8263167 72.5529417,76.3382011 73.1831414,76.3454891 C80.8868502,77.4318382 87.1879776,79.0568487 91.4607564,80.9613301 C93.59714,81.9135707 95.2277794,82.9271215 96.2572677,83.928715 C97.286756,84.9303086 97.6744188,85.8421057 97.6744188,86.7128731 C97.6744188,87.9294623 96.7138258,89.3490898 94.4040702,90.8158429 C92.0943145,92.282596 88.6138845,93.6777229 84.2659895,94.8455453 C75.5701878,97.1811902 63.4018514,98.6554458 50,98.6554458 C36.5981521,98.6554458 24.4661529,97.1811902 15.7703512,94.8455453 C11.4224562,93.6777229 7.9420227,92.282596 5.63226705,90.8158429 C3.3225114,89.3490898 2.32558123,87.9294623 2.32558123,86.7128731 C2.32558123,85.8444502 2.72304632,84.9708694 3.67005788,84.0019824 C4.61706945,83.0330954 6.1045926,82.0361909 8.10319711,81.1078647 C12.100398,79.2513295 18.0767813,77.6379246 25.5087226,76.528716 C25.9536636,76.5130016 26.3506532,76.2425606 26.531108,75.8322371 C26.7115627,75.4219135 26.643806,74.9437348 26.356611,74.6007617 C26.069416,74.2577886 25.6131963,74.1102259 25.1816878,74.2207369 C17.6116534,75.3505775 11.4898748,76.9712506 7.15842973,78.9831125 C4.99270895,79.9890435 3.23715094,81.0861776 1.99854637,82.3534091 C0.759941807,83.6206406 0,85.1136527 0,86.7128731 C0,89.1185029 1.76377895,91.1220417 4.39680202,92.7940605 C7.02982509,94.4660792 10.6988865,95.9107935 15.1889559,97.1168322 C24.1690948,99.5289095 36.4307219,101 50,101 C63.5692932,101 75.8672459,99.5289095 84.8473848,97.1168322 C89.3374542,95.9107935 93.0065121,94.4660792 95.6395352,92.7940605 C98.2725583,91.1220417 100,89.1185029 100,86.7128731 C100,85.0632448 99.1811628,83.5327198 97.8561048,82.2435667 C96.5310468,80.9544136 94.7040353,79.8244558 92.4055238,78.8000028 C87.8085009,76.7509797 81.3524897,75.1434362 73.5101763,74.0376272 C73.4269809,74.0160802 73.3416737,74.0038923 73.2558158,74.0012866 C73.2195179,73.9995711 73.1831602,73.9995711 73.1468623,74.0012866 L73.1468623,74.0009349 Z" id="Shape"></path>
                <path d="M65.5139608,80.0009096 C64.8929261,80.0280525 64.4009504,80.5214694 64.3912537,81.1269056 C64.381557,81.7323418 64.8574919,82.2404658 65.4773551,82.2864639 C68.1840815,82.8217408 70.3958109,83.4981506 71.8202735,84.2149004 C72.5325106,84.5732753 73.0388999,84.9511918 73.3235085,85.2505994 C73.608117,85.550007 73.6534869,85.6960539 73.6534869,85.821988 C73.6534869,86.0454009 73.4033838,86.58982 72.3335732,87.2146905 C71.2637627,87.8395611 69.5539759,88.4381478 67.4205613,88.9646252 C63.1537205,90.0176944 57.1231817,90.7144456 50.4816661,90.7144456 C43.840154,90.7144456 37.8462795,90.0176944 33.5794387,88.9646252 C31.4460241,88.4381478 29.7362373,87.8395611 28.6664268,87.2146905 C27.5966162,86.58982 27.3465131,86.0454009 27.3465131,85.821988 C27.3465131,85.6498857 27.3826494,85.4682984 27.6398273,85.1791758 C27.8970286,84.8900532 28.3556546,84.5641331 29.0330695,84.2149004 C30.3879109,83.5166636 32.5698866,82.8221979 35.3759878,82.2864639 C35.7911109,82.2059664 36.1301011,81.9149436 36.2642229,81.5239147 C36.3983447,81.1328858 36.3070233,80.7018363 36.0249391,80.3944622 C35.7428549,80.0870882 35.3132807,79.9505419 34.8993523,80.0366785 C31.9590071,80.5980106 29.6325684,81.303447 27.9331414,82.1793857 C27.0834338,82.6172979 26.4089286,83.1202342 25.8799424,83.7149354 C25.3509562,84.3096366 25,85.0283292 25,85.821988 C25,87.2612016 26.0629822,88.3292411 27.4565059,89.143127 C28.8500297,89.9571272 30.7214913,90.6538784 32.9928104,91.2144107 C37.5354486,92.3355893 43.6797463,93 50.4816661,93 C57.2835894,93 63.4645514,92.3355893 68.0071896,91.2144107 C70.2785087,90.6538784 72.1499703,89.9571272 73.5434941,89.143127 C74.9370178,88.3292411 76,87.2612016 76,85.821988 C76,84.9993027 75.6034275,84.2648398 75.046729,83.6792808 C74.4900305,83.0937217 73.7553725,82.6180979 72.8835372,82.1793857 C71.1398551,81.3019614 68.7951605,80.5984678 65.9539906,80.0366785 C65.8462774,80.0096972 65.7351729,79.9977692 65.6240122,80.0012524 C65.5873876,79.9995825 65.5507027,79.9995825 65.5140781,80.0012524 L65.5139608,80.0009096 Z" id="Shape"></path>
            </g>
        </g>
    </g>
</svg>