<?xml version="1.0" encoding="UTF-8"?>
<svg width="234px" height="32px" viewBox="0 0 234 32" version="1.1" xmlns="http://www.w3.org/2000/svg" xmlns:xlink="http://www.w3.org/1999/xlink">
    <!-- Generator: Sketch 40.1 (33804) - http://www.bohemiancoding.com/sketch -->
    <title>dark-logo</title>
    <desc>Created with Sketch.</desc>
    <defs>
        <path d="M0.016173913,3.57332508 C0.197529227,1.56974828 1.88158364,0 3.93241739,0 L23.9716261,0 C26.143513,0 27.9040435,1.76053043 27.9040435,3.93241739 L27.9040435,20.6584 C27.9040435,22.8300174 26.143513,24.5908174 23.9716261,24.5908174 L17.5362957,24.5908174 L13.9876437,30.7363652 L13.9689657,30.7363652 L10.4205826,24.5908174 L3.93241739,24.5908174 C1.88158364,24.5908174 0.197529227,23.0208288 0.016173913,21.0174521 L0.016173913,3.57332508 L0.016173913,3.57332508 L0.016173913,3.57332508 Z M14.7072087,15.9393913 L12.3094261,18.0471217 L5.64685217,10.5971478 L8.61126087,7.99126087 L12.5142957,12.3021478 L20.2702261,5.74713043 L22.9772,8.95010435 L14.7072087,15.9393913 L14.7072087,15.9393913 Z" id="path-1"></path>
    </defs>
    <g id="Page-1" stroke="none" stroke-width="1" fill="none" fill-rule="evenodd">
        <g id="dark-logo">
            <g id="logo_oodit_CMYK" transform="translate(0.000000, 1.000000)">
                <path d="M116.711765,17.5584 L113.344357,17.5584 C111.078122,17.3621565 110.23573,15.6598522 110.163217,13.9076783 L110.163217,9.63075652 L116.244878,9.63075652 C116.614991,9.63075652 116.917713,9.32803478 116.917713,8.959 L116.917713,6.27197391 C116.917713,5.90186087 116.614991,5.60021739 116.244878,5.60021739 L110.163217,5.60021739 L110.163217,0.672565217 C110.163217,0.302721739 109.860765,0 109.491461,0 L105.724826,0 C105.354983,0 105.0528,0.302721739 105.0528,0.672565217 L105.0528,13.8025478 C105.0528,13.8270783 105.054417,13.8481043 105.056843,13.8664348 C105.145261,19.1739043 108.517791,22.0550174 113.790217,22.0550174 L116.711765,22.0550174 C117.081609,22.0550174 117.38433,21.7525652 117.38433,21.3835304 L117.38433,18.2301565 C117.38433,17.8600435 117.081609,17.5584 116.711765,17.5584" id="Fill-1" fill="#272626"></path>
                <path d="M64.5670696,17.577949 L63.6152348,17.577949 C60.8926261,17.577949 59.9483391,15.6025751 59.9483391,13.6538882 C59.9483391,11.7052012 60.8926261,9.69613166 63.6152348,9.69613166 L64.5670696,9.69613166 C67.2886,9.69613166 68.2,11.7052012 68.2,13.6538882 C68.2,15.6025751 67.2886,17.577949 64.5670696,17.577949 L64.5670696,17.577949 Z M64.5670696,5.22000122 L63.6152348,5.22000122 C58.2721826,5.22000122 54.8778174,8.21055774 54.8778174,13.6538882 C54.8778174,19.0980273 58.2721826,22.0548882 63.6152348,22.0548882 L64.5670696,22.0548882 C69.9101217,22.0548882 73.304487,19.0980273 73.304487,13.6538882 C73.304487,8.21055774 69.9101217,5.22000122 64.5670696,5.22000122 L64.5670696,5.22000122 Z" id="Fill-3" fill="#272626"></path>
                <path d="M44.3418609,17.577949 L43.3902957,17.577949 C40.667687,17.577949 39.7234,15.6025751 39.7234,13.6538882 C39.7234,11.7052012 40.667687,9.69613166 43.3902957,9.69613166 L44.3418609,9.69613166 C47.0633913,9.69613166 47.9750609,11.7052012 47.9750609,13.6538882 C47.9750609,15.6025751 47.0633913,17.577949 44.3418609,17.577949 L44.3418609,17.577949 Z M44.3418609,5.22000122 L43.3902957,5.22000122 C38.0472435,5.22000122 34.6528783,8.21055774 34.6528783,13.6538882 C34.6528783,19.0980273 38.0472435,22.0548882 43.3902957,22.0548882 L44.3418609,22.0548882 C49.684913,22.0548882 53.0792783,19.0980273 53.0792783,13.6538882 C53.0792783,8.21055774 49.684913,5.22000122 44.3418609,5.22000122 L44.3418609,5.22000122 Z" id="Fill-4" fill="#272626"></path>
                <path d="M84.7789789,17.5780783 L83.8274137,17.5780783 C81.104805,17.5780783 80.1605181,15.6027043 80.1605181,13.6540174 C80.1605181,11.7053304 81.104805,9.69626087 83.8274137,9.69626087 L84.7789789,9.69626087 C87.3840572,9.69626087 88.3299616,11.5368522 88.4062485,13.4033217 L88.4062485,13.9044435 C88.3299616,15.7682174 87.3840572,17.5780783 84.7789789,17.5780783 L84.7789789,17.5780783 Z M92.8446398,0 L89.078005,0 C88.7084311,0 88.4062485,0.302721739 88.4062485,0.672565217 L88.4062485,6.04392174 C87.3560224,5.53255652 86.1478311,5.22013043 84.7789789,5.22013043 L83.8274137,5.22013043 C78.4843616,5.22013043 75.0899963,8.21068696 75.0899963,13.6540174 C75.0899963,19.0981565 78.4843616,22.0550174 83.8274137,22.0550174 L84.7789789,22.0550174 C90.1220311,22.0550174 93.5166659,19.0981565 93.5166659,13.6540174 C93.5166659,13.5294783 93.5091181,13.3990087 93.4983355,13.2655739 C93.5093876,13.2173217 93.5166659,13.1677217 93.5166659,13.1162348 L93.5166659,0.672565217 C93.5166659,0.302721739 93.2142137,0 92.8446398,0 L92.8446398,0 Z" id="Fill-5" fill="#272626"></path>
                <g id="Group-2" transform="translate(96.000000, 0.000000)" fill="#272626">
                    <path d="M5.38806087,5.6000061 L1.28824348,5.6000061 C0.918669565,5.6000061 0.616486957,5.90272784 0.616486957,6.27257132 L0.616486957,20.9167018 C0.616486957,21.285467 0.918669565,21.5881887 1.28824348,21.5881887 L5.38806087,21.5881887 C5.75763478,21.5881887 6.05981739,21.285467 6.05981739,20.9167018 L6.05981739,6.27257132 C6.05981739,5.90272784 5.75763478,5.6000061 5.38806087,5.6000061" id="Fill-2"></path>
                    <path d="M4.77803478,0 L1.898,0 C1.1903913,0 0.616486957,0.573634783 0.616486957,1.28151304 L0.616486957,2.63742609 C0.616486957,3.34530435 1.1903913,3.91893913 1.898,3.91893913 L4.77803478,3.91893913 C5.48591304,3.91893913 6.05981739,3.34530435 6.05981739,2.63742609 L6.05981739,1.28151304 C6.05981739,0.573634783 5.48591304,0 4.77803478,0" id="Fill-6"></path>
                </g>
                <mask id="mask-2" fill="white">
                    <use xlink:href="#path-1"></use>
                </mask>
                <use id="Clip-8" fill="#069FEE" xlink:href="#path-1"></use>
            </g>
            <path d="M134.890137,14.1230469 L128.693848,14.1230469 L128.693848,23 L126.877441,23 L126.877441,1.671875 L133.806152,1.671875 C136.081554,1.671875 137.85888,2.22362729 139.138184,3.32714844 C140.417487,4.43066958 141.057129,5.9736229 141.057129,7.95605469 C141.057129,9.32324902 140.656742,10.5292917 139.855957,11.5742188 C139.055172,12.6191458 137.980964,13.3417949 136.633301,13.7421875 L141.965332,22.8095703 L141.965332,23 L140.046387,23 L134.890137,14.1230469 Z M128.693848,12.5849609 L134.216309,12.5849609 C135.729988,12.5849609 136.945796,12.1552777 137.86377,11.2958984 C138.781743,10.4365191 139.240723,9.32324902 139.240723,7.95605469 C139.240723,6.45214092 138.762212,5.2851604 137.805176,4.45507812 C136.84814,3.62499585 135.50538,3.20996094 133.776855,3.20996094 L128.693848,3.20996094 L128.693848,12.5849609 Z M147.51709,23 L145.759277,23 L145.759277,7.15039062 L147.51709,7.15039062 L147.51709,23 Z M145.45166,2.56542969 C145.45166,2.23339678 145.559081,1.95263787 145.773926,1.72314453 C145.988771,1.4936512 146.281736,1.37890625 146.652832,1.37890625 C147.023928,1.37890625 147.319335,1.4936512 147.539062,1.72314453 C147.75879,1.95263787 147.868652,2.23339678 147.868652,2.56542969 C147.868652,2.8974626 147.75879,3.17578013 147.539062,3.40039062 C147.319335,3.62500112 147.023928,3.73730469 146.652832,3.73730469 C146.281736,3.73730469 145.988771,3.62500112 145.773926,3.40039062 C145.559081,3.17578013 145.45166,2.8974626 145.45166,2.56542969 L145.45166,2.56542969 Z M161.77002,18.9716797 C161.77002,18.1025347 161.420902,17.4042995 160.722656,16.8769531 C160.024411,16.3496067 158.972175,15.9370132 157.565918,15.6391602 C156.159661,15.3413071 155.068363,14.9995136 154.291992,14.6137695 C153.515621,14.2280254 152.939455,13.7568387 152.563477,13.2001953 C152.187498,12.6435519 151.999512,11.9697305 151.999512,11.1787109 C151.999512,9.92870469 152.521967,8.89600017 153.566895,8.08056641 C154.611822,7.26513264 155.949699,6.85742188 157.580566,6.85742188 C159.348153,6.85742188 160.766596,7.29442922 161.835938,8.16845703 C162.905279,9.04248484 163.439941,10.1826102 163.439941,11.5888672 L161.682129,11.5888672 C161.682129,10.6611282 161.293949,9.88965151 160.517578,9.27441406 C159.741207,8.65917661 158.762213,8.3515625 157.580566,8.3515625 C156.428217,8.3515625 155.502933,8.60790759 154.804688,9.12060547 C154.106442,9.63330334 153.757324,10.2998006 153.757324,11.1201172 C153.757324,11.9111368 154.047849,12.5239236 154.628906,12.9584961 C155.209964,13.3930686 156.269524,13.7910138 157.807617,14.1523438 C159.345711,14.5136737 160.498043,14.899412 161.264648,15.3095703 C162.031254,15.7197286 162.600096,16.2128877 162.971191,16.7890625 C163.342287,17.3652373 163.527832,18.0634725 163.527832,18.8837891 C163.527832,20.2216864 162.988287,21.2910116 161.90918,22.0917969 C160.830073,22.8925821 159.421395,23.2929688 157.683105,23.2929688 C155.837393,23.2929688 154.340826,22.8461959 153.193359,21.9526367 C152.045893,21.0590776 151.472168,19.9287178 151.472168,18.5615234 L153.22998,18.5615234 C153.29834,19.5869192 153.730465,20.385251 154.526367,20.956543 C155.32227,21.5278349 156.374505,21.8134766 157.683105,21.8134766 C158.903815,21.8134766 159.890133,21.5449246 160.64209,21.0078125 C161.394047,20.4707004 161.77002,19.7919963 161.77002,18.9716797 L161.77002,18.9716797 Z M171.23291,15.0166016 L169.226074,16.9501953 L169.226074,23 L167.468262,23 L167.468262,0.5 L169.226074,0.5 L169.226074,14.8994141 L170.881348,13.1123047 L176.945801,7.15039062 L179.157715,7.15039062 L172.434082,13.8300781 L179.743652,23 L177.648926,23 L171.23291,15.0166016 Z M194.904785,15.2363281 C194.904785,17.7070436 194.357916,19.6674732 193.26416,21.1176758 C192.170405,22.5678783 190.705576,23.2929688 188.869629,23.2929688 C186.701649,23.2929688 185.04151,22.5312576 183.88916,21.0078125 L183.88916,29.09375 L182.145996,29.09375 L182.145996,7.15039062 L183.771973,7.15039062 L183.859863,9.39160156 C185.002447,7.70213999 186.657704,6.85742188 188.825684,6.85742188 C190.720224,6.85742188 192.207026,7.57518813 193.286133,9.01074219 C194.36524,10.4462962 194.904785,12.4384638 194.904785,14.9873047 L194.904785,15.2363281 Z M193.146973,14.9287109 C193.146973,12.9072165 192.731938,11.3105527 191.901855,10.1386719 C191.071773,8.96679102 189.914558,8.38085938 188.430176,8.38085938 C187.355952,8.38085938 186.433109,8.63964585 185.661621,9.15722656 C184.890133,9.67480728 184.299318,10.4267529 183.88916,11.4130859 L183.88916,19.015625 C184.309084,19.9238327 184.909664,20.6171851 185.690918,21.0957031 C186.472172,21.5742211 187.395014,21.8134766 188.459473,21.8134766 C189.934089,21.8134766 191.08398,21.2251035 191.90918,20.0483398 C192.734379,18.8715761 193.146973,17.1650502 193.146973,14.9287109 L193.146973,14.9287109 Z M200.749512,23 L198.991699,23 L198.991699,0.5 L200.749512,0.5 L200.749512,23 Z M215.515137,23 C215.339355,22.5019506 215.227051,21.7646533 215.178223,20.7880859 C214.562985,21.5888712 213.779302,22.2065408 212.827148,22.6411133 C211.874995,23.0756858 210.866705,23.2929688 209.802246,23.2929688 C208.278801,23.2929688 207.045903,22.8681683 206.103516,22.0185547 C205.161128,21.1689411 204.689941,20.0947331 204.689941,18.7958984 C204.689941,17.252922 205.332025,16.0322311 206.616211,15.1337891 C207.900397,14.2353471 209.68993,13.7861328 211.984863,13.7861328 L215.163574,13.7861328 L215.163574,11.984375 C215.163574,10.8515568 214.814457,9.96045247 214.116211,9.31103516 C213.417965,8.66161785 212.399909,8.33691406 211.062012,8.33691406 C209.841302,8.33691406 208.83057,8.64941094 208.029785,9.27441406 C207.229,9.89941719 206.828613,10.6513628 206.828613,11.5302734 L205.070801,11.515625 C205.070801,10.2558531 205.656732,9.1645554 206.828613,8.24169922 C208.000494,7.31884304 209.440909,6.85742188 211.149902,6.85742188 C212.917489,6.85742188 214.311518,7.29931199 215.332031,8.18310547 C216.352544,9.06689895 216.877441,10.2997968 216.906738,11.8818359 L216.906738,19.3818359 C216.906738,20.9150467 217.067869,22.0624962 217.390137,22.8242188 L217.390137,23 L215.515137,23 Z M210.007324,21.7402344 C211.179205,21.7402344 212.226558,21.4570341 213.149414,20.890625 C214.07227,20.3242159 214.74365,19.5673875 215.163574,18.6201172 L215.163574,15.1337891 L212.028809,15.1337891 C210.280753,15.1533204 208.913579,15.4731414 207.927246,16.0932617 C206.940913,16.713382 206.447754,17.5654243 206.447754,18.6494141 C206.447754,19.5380904 206.77734,20.2753877 207.436523,20.8613281 C208.095706,21.4472686 208.952631,21.7402344 210.007324,21.7402344 L210.007324,21.7402344 Z M223.249512,7.15039062 L223.308105,9.86035156 C223.903812,8.88378418 224.645992,8.13916272 225.534668,7.62646484 C226.423344,7.11376697 227.40478,6.85742188 228.479004,6.85742188 C230.178231,6.85742188 231.442867,7.33593271 232.272949,8.29296875 C233.103031,9.25000479 233.522949,10.6855373 233.532715,12.5996094 L233.532715,23 L231.789551,23 L231.789551,12.5849609 C231.779785,11.1689382 231.479495,10.1142613 230.888672,9.42089844 C230.297849,8.7275356 229.353034,8.38085938 228.054199,8.38085938 C226.970209,8.38085938 226.010746,8.72021145 225.175781,9.39892578 C224.340816,10.0776401 223.723147,10.9931583 223.322754,12.1455078 L223.322754,23 L221.57959,23 L221.57959,7.15039062 L223.249512,7.15039062 Z" id="Riskplan" fill="#000000"></path>
        </g>
    </g>
</svg>