<?xml version="1.0" encoding="UTF-8"?>
<svg width="70px" height="70px" viewBox="0 0 70 70" version="1.1" xmlns="http://www.w3.org/2000/svg" xmlns:xlink="http://www.w3.org/1999/xlink">
    <!-- Generator: Sketch 46.2 (44496) - http://www.bohemiancoding.com/sketch -->
    <title>icon / add user</title>
    <desc>Created with Sketch.</desc>
    <defs></defs>
    <g id="Page-1" stroke="none" stroke-width="1" fill="none" fill-rule="evenodd">
        <g id="2--Sign-Up" transform="translate(-149.000000, -113.000000)">
            <g id="icon-/-add-user" transform="translate(150.000000, 114.000000)">
                <path d="M30.5,37 L30.5,37 C21.93935,37 15,27.014625 15,18.5 L15,15.4166667 C15,6.90204167 21.93935,0 30.5,0 L30.5,0 C39.06065,0 46,6.90204167 46,15.4166667 L46,18.5 C46,27.014625 39.06065,37 30.5,37 Z" id="Fill-1" fill-opacity="0" fill="#000000"></path>
                <path d="M30.5,37 L30.5,37 C21.93935,37 15,27.014625 15,18.5 L15,15.4166667 C15,6.90204167 21.93935,0 30.5,0 L30.5,0 C39.06065,0 46,6.90204167 46,15.4166667 L46,18.5 C46,27.014625 39.06065,37 30.5,37 Z" id="Stroke-3" stroke="#FFFFFF" stroke-width="2" stroke-linecap="square"></path>
                <path d="M43,44.8784615 C39.374034,44.3492308 35.3183926,44 30.9119011,44 C21.1931994,44 13.1731066,45.6892308 7.73879444,47.2984615 C3.14374034,48.6584615 0,52.8538462 0,57.6246138 L0,64 L34.0030912,64" id="Fill-4" fill-opacity="0" fill="#000000"></path>
                <path d="M43,44.8784615 C39.374034,44.3492308 35.3183926,44 30.9119011,44 C21.1931994,44 13.1731066,45.6892308 7.73879444,47.2984615 C3.14374034,48.6584615 0,52.8538462 0,57.6246154 L0,64 L34.0030912,64" id="Stroke-5" stroke="#FFFFFF" stroke-width="2"></path>
                <path d="M63.8994933,44.1005067 C69.3668356,49.5678489 69.3668356,58.4321542 63.8994933,63.8994949 C58.4321511,69.366835 49.5678489,69.366835 44.1005067,63.8994949 C38.6331644,58.4321542 38.6331644,49.5678489 44.1005067,44.1005067 C49.5678489,38.6331644 58.4321511,38.6331644 63.8994933,44.1005067" id="Fill-6" fill-opacity="0" fill="#000000"></path>
                <path d="M63.8994933,44.1005067 C69.3668356,49.5678489 69.3668356,58.4321511 63.8994933,63.8994933 C58.4321511,69.3668356 49.5678489,69.3668356 44.1005067,63.8994933 C38.6331644,58.4321511 38.6331644,49.5678489 44.1005067,44.1005067 C49.5678489,38.6331644 58.4321511,38.6331644 63.8994933,44.1005067" id="Stroke-7" stroke="#FFFFFF" stroke-width="2" stroke-linecap="square"></path>
                <path d="M54,50 L54,59" id="Fill-8" fill-opacity="0" fill="#000000"></path>
                <path d="M54,50 L54,59" id="Stroke-9" stroke="#FFFFFF" stroke-width="2" stroke-linecap="square"></path>
                <path d="M50,54 L59,54" id="Fill-10" fill-opacity="0" fill="#000000"></path>
                <path d="M50,54 L59,54" id="Stroke-11" stroke="#FFFFFF" stroke-width="2" stroke-linecap="square"></path>
            </g>
        </g>
    </g>
</svg>