<?xml version="1.0" encoding="UTF-8"?>
<svg width="24px" height="24px" viewBox="0 0 24 24" version="1.1" xmlns="http://www.w3.org/2000/svg" xmlns:xlink="http://www.w3.org/1999/xlink">
    <!-- Generator: Sketch 46.2 (44496) - http://www.bohemiancoding.com/sketch -->
    <title>icon / devices active</title>
    <desc>Created with Sketch.</desc>
    <defs></defs>
    <g id="Page-1" stroke="none" stroke-width="1" fill="none" fill-rule="evenodd">
        <g id="13---landing-view" transform="translate(-219.000000, -625.000000)" fill-rule="nonzero" fill="#3BCDF9">
            <g id="Tab-Bar---5-Tabs" transform="translate(0.000000, 618.000000)">
                <g id="Tab-2-Copy" transform="translate(206.000000, 0.000000)">
                    <g id="Group" transform="translate(13.000000, 7.000000)">
                        <g id="icon-/-devices-active">
                            <g>
                                <path d="M4.17391304,10.4347826 L4.17391304,13.0434783 L22.4236874,13.0434783 C22.430721,13.0433347 22.4377763,13.043334 22.4448507,13.0434783 L23.477536,13.0434783 C23.7656846,13.0434783 23.9992751,13.2770689 23.9992751,13.5652174 C23.9992751,13.8533659 23.7656846,14.0869565 23.477536,14.0869565 L22.8565648,14.0869565 L22.0367128,17.9129323 C21.6222044,19.8473048 19.7157153,21.3912357 17.7391304,21.3913043 L17.7391304,22.9565217 C17.7391304,23.2446703 17.5055398,23.4782609 17.2173913,23.4782609 C16.9292428,23.4782609 16.6956522,23.2446703 16.6956522,22.9565217 L16.6956522,21.3913043 L7.30434783,21.3913043 L7.30434783,22.9565217 C7.30434783,23.2446703 7.07075723,23.4782609 6.7826087,23.4782609 C6.49446016,23.4782609 6.26086957,23.2446703 6.26086957,22.9565217 L6.26086957,21.3913043 C4.28619787,21.3912356 2.37746649,19.845769 1.96328719,17.9129323 L1.14343524,14.0869565 L0.522463967,14.0869565 C0.234315399,14.0869565 0.000724833944,13.8533659 0.000724833944,13.5652174 C0.000724833944,13.2770689 0.234315399,13.0434783 0.522463967,13.0434783 L1.55514924,13.0434783 C1.56222374,13.043334 1.56927904,13.0433347 1.5763117,13.0434783 L3.13043478,13.0434783 L3.13043478,3.64920212 C3.13043478,1.63481459 4.76807305,0 6.7826087,0 C7.80157321,0 8.75138584,0.420223982 9.43193429,1.13712273 L9.61834143,0.950715595 C10.231327,0.337729974 11.2204961,0.334951229 11.8340768,0.948531903 L12.5719274,1.68638246 C12.7756792,1.89013426 12.7756792,2.22048121 12.5719274,2.42423301 L9.9894504,5.00670995 C9.78569859,5.21046176 9.45535163,5.21046176 9.25159983,5.00670995 L8.5137493,4.2688594 C7.90110814,3.65621825 7.90060357,2.66845347 8.51593299,2.05312405 L8.693735,1.87532203 C8.20609929,1.35088047 7.52035718,1.04347826 6.7826087,1.04347826 C5.34396746,1.04347826 4.17391304,2.21151522 4.17391304,3.64920212 L4.17391304,9.39130435 L5.21775359,9.39130435 L5.21811626,8.86920282 C5.2183164,8.58105433 5.4520692,8.34762605 5.74021769,8.34782619 C6.02836617,8.34802638 6.26179445,8.58177913 6.26159426,8.86992762 L6.26014461,10.9568841 C6.25994447,11.2450326 6.02619167,11.4784609 5.73804318,11.4782608 C5.4498947,11.4780606 5.21646644,11.2443078 5.2166666,10.9561593 L5.21702876,10.4347826 L4.17391304,10.4347826 Z M21.789398,14.0869565 L2.21060203,14.0869565 L2.98360275,17.6942932 C3.29476336,19.1463761 4.77865055,20.3478261 6.2610013,20.3478261 L17.7389987,20.3478261 C19.2232241,20.3478261 20.7048995,19.1479494 21.0163973,17.6942932 L21.789398,14.0869565 Z" id="Combined-Shape"></path>
                            </g>
                        </g>
                    </g>
                </g>
            </g>
        </g>
    </g>
</svg>