<?xml version="1.0" encoding="UTF-8"?>
<svg width="24px" height="21px" viewBox="0 0 24 21" version="1.1" xmlns="http://www.w3.org/2000/svg" xmlns:xlink="http://www.w3.org/1999/xlink">
    <!-- Generator: Sketch 46.2 (44496) - http://www.bohemiancoding.com/sketch -->
    <title>icon/home-press</title>
    <desc>Created with Sketch.</desc>
    <defs></defs>
    <g id="Page-1" stroke="none" stroke-width="1" fill="none" fill-rule="evenodd">
        <g id="13---landing-view" transform="translate(-52.000000, -626.000000)" fill-rule="nonzero" fill="#FFFFFF">
            <g id="Tab-Bar---5-Tabs" transform="translate(0.000000, 618.000000)">
                <g id="Tab-1" transform="translate(37.000000, 0.000000)">
                    <g id="Group" transform="translate(14.000000, 8.000000)">
                        <path d="M21.5348837,20.0930233 C21.8435349,20.0930233 21.0930233,19.8435349 21.0930233,19.5348837 L21.0930233,9.71944186 L23.4891163,12.1155349 C23.5979535,12.2243721 23.7408372,12.2790698 23.8837209,12.2790698 C24.0266047,12.2790698 24.1694884,12.2243721 24.2783256,12.1155349 C24.4965581,11.8973023 24.4965581,11.5445581 24.2783256,11.3263256 L13.1155349,0.163534884 C12.8973023,-0.0546976744 12.5445581,-0.0546976744 12.3263256,0.163534884 L1.16353488,11.3263256 C0.945302326,11.5445581 0.945302326,11.8973023 1.16353488,12.1155349 C1.27237209,12.2243721 1.41525581,12.2790698 1.55813953,12.2790698 C1.70102326,12.2790698 1.84390698,12.2243721 1.95274419,12.1155349 L4.34883721,9.71944186 L4.34883721,19.5348837 C4.34883721,19.8435349 4.59888372,20.0930233 4.90697674,20.0930233 L21.5348837,20.0930233 Z M5.46511628,8.60316279 L12.7209302,1.34734884 L19.9767442,8.60316279 L19.9767442,18.9767442 L5.46511628,18.9767442 L5.46511628,8.60316279 Z" id="icon/home-press"></path>
                    </g>
                </g>
            </g>
        </g>
    </g>
</svg>