<?xml version="1.0" encoding="UTF-8"?>
<svg width="18px" height="12px" viewBox="0 0 18 12" version="1.1" xmlns="http://www.w3.org/2000/svg" xmlns:xlink="http://www.w3.org/1999/xlink">
    <!-- Generator: Sketch 46.2 (44496) - http://www.bohemiancoding.com/sketch -->
    <title>icon/list</title>
    <desc>Created with Sketch.</desc>
    <defs></defs>
    <g id="Page-1" stroke="none" stroke-width="1" fill="none" fill-rule="evenodd">
        <g id="13---landing-view" transform="translate(-137.000000, -635.000000)" fill-rule="nonzero" fill="#8F96A4">
            <g id="Tab-Bar---5-Tabs" transform="translate(0.000000, 618.000000)">
                <g id="Tab-2" transform="translate(122.000000, 0.000000)">
                    <g id="icon/list" transform="translate(15.000000, 17.000000)">
                        <path d="M17.8334366,1.76273239 C17.8334366,2.26977465 17.4222254,2.68098592 16.9151831,2.68098592 L5.28515493,2.68098592 C4.77811268,2.68098592 4.36690141,2.27002817 4.36690141,1.76273239 L4.36690141,1.76273239 C4.36690141,1.25569014 4.77811268,0.844478873 5.28515493,0.844478873 L16.9151831,0.844478873 C17.4222254,0.844478873 17.8334366,1.25569014 17.8334366,1.76273239 L17.8334366,1.76273239 Z" id="Shape"></path>
                        <circle id="Oval" cx="1.61239437" cy="1.76273239" r="1.53025352"></circle>
                        <path d="M17.8334366,5.8943662 C17.8334366,6.40140845 17.4222254,6.8123662 16.9151831,6.8123662 L5.28515493,6.8123662 C4.77811268,6.8123662 4.36690141,6.40140845 4.36690141,5.8943662 L4.36690141,5.8943662 C4.36690141,5.38732394 4.77811268,4.97611268 5.28515493,4.97611268 L16.9151831,4.97611268 C17.4222254,4.97611268 17.8334366,5.38732394 17.8334366,5.8943662 L17.8334366,5.8943662 Z" id="Shape"></path>
                        <circle id="Oval" cx="1.61239437" cy="5.8943662" r="1.53025352"></circle>
                        <path d="M17.8334366,10.026 C17.8334366,10.5330423 17.4222254,10.944 16.9151831,10.944 L5.28515493,10.944 C4.77811268,10.944 4.36690141,10.5330423 4.36690141,10.026 L4.36690141,10.026 C4.36690141,9.51895775 4.77811268,9.108 5.28515493,9.108 L16.9151831,9.108 C17.4222254,9.108 17.8334366,9.51895775 17.8334366,10.026 L17.8334366,10.026 Z" id="Shape"></path>
                        <circle id="Oval" cx="1.61239437" cy="10.026" r="1.53025352"></circle>
                    </g>
                </g>
            </g>
        </g>
    </g>
</svg>