<?xml version="1.0" encoding="UTF-8"?>
<svg width="17px" height="23px" viewBox="0 0 17 23" version="1.1" xmlns="http://www.w3.org/2000/svg" xmlns:xlink="http://www.w3.org/1999/xlink">
    <!-- Generator: Sketch 46.2 (44496) - http://www.bohemiancoding.com/sketch -->
    <title>icon/password</title>
    <desc>Created with Sketch.</desc>
    <defs></defs>
    <g id="Page-1" stroke="none" stroke-width="1" fill="none" fill-rule="evenodd">
        <g id="1--Login" transform="translate(-36.000000, -396.000000)" fill-rule="nonzero" fill="#FFFFFF">
            <g id="Login" transform="translate(32.000000, 350.000000)">
                <g id="Password" transform="translate(4.000000, 46.000000)">
                    <path d="M10.5569058,3.29693077 C9.67112598,1.30392623 7.68419077,0 5.5,0 C2.42385763,0 0,2.42385763 0,5.5 L0,7.9967041 L1,7.9967041 L1,5.5 C1,2.97614237 2.97614237,1 5.5,1 C7.2872378,1 8.91710931,2.06960318 9.64309423,3.70306923 L10.5569058,3.29693077 Z M6.56065661,14.4393434 C7.14644446,15.0251312 7.14644446,15.9748688 6.56065661,16.5606566 C5.97486876,17.1464445 5.02513124,17.1464445 4.43934339,16.5606566 C3.85355369,15.9748684 3.85355369,15.0251316 4.43934294,14.4393438 C5.02513124,13.8535555 5.97486876,13.8535555 6.56065661,14.4393434 L7.26776339,13.7322366 C6.29145124,12.7559245 4.70854876,12.7559245 3.73223661,13.7322366 C2.75592231,14.7085484 2.75592231,16.2914516 3.73223706,17.2677638 C4.70854876,18.2440755 6.29145124,18.2440755 7.26776339,17.2677634 C8.24407554,16.2914512 8.24407554,14.7085488 7.26776339,13.7322366 L6.56065661,14.4393434 Z M4.5,17 L4.5,20 L6.5,20 L6.5,17 L4.5,17 Z M17,8 L17,23 L0,23 L0,8 L17,8 Z M1,9 L1,22 L16,22 L16,9 L1,9 Z" id="icon/password"></path>
                </g>
            </g>
        </g>
    </g>
</svg>