<?xml version="1.0" encoding="UTF-8"?>
<svg width="32px" height="23px" viewBox="0 0 32 23" version="1.1" xmlns="http://www.w3.org/2000/svg" xmlns:xlink="http://www.w3.org/1999/xlink">
    <!-- Generator: Sketch 46.2 (44496) - http://www.bohemiancoding.com/sketch -->
    <title>icon / sensor</title>
    <desc>Created with Sketch.</desc>
    <defs></defs>
    <g id="Page-1" stroke="none" stroke-width="1" fill="none" fill-rule="evenodd">
        <g id="13---landing-view" transform="translate(-20.000000, -357.000000)" fill="#8F96A4">
            <path d="M36.1904762,373 C33.7904762,373 31.8095238,371.019048 31.8095238,368.619048 C31.8095238,366.219048 33.7904762,364.238095 36.1904762,364.238095 C38.5904762,364.238095 40.5714286,366.219048 40.5714286,368.619048 C40.5714286,371.019048 38.5904762,373 36.1904762,373 Z M36.1904762,365.380952 C34.4,365.380952 32.952381,366.828571 32.952381,368.619048 C32.952381,370.409524 34.4,371.857143 36.1904762,371.857143 C37.9809524,371.857143 39.4285714,370.409524 39.4285714,368.619048 C39.4285714,366.828571 37.9809524,365.380952 36.1904762,365.380952 Z M37.7038713,369.190476 C37.393555,369.190476 37.1220283,368.906032 37.1220283,368.580952 C37.1220283,367.890159 36.5789748,367.361905 35.9583423,367.361905 C35.6092365,367.361905 35.3377098,367.48381 35.1049726,367.768254 C34.8722354,368.012063 34.5231296,368.052698 34.2903924,367.808889 C34.0576552,367.565079 34.0188656,367.199365 34.2516028,366.955556 C34.6782877,366.467937 35.3377098,366.142857 35.9583423,366.142857 C37.2383969,366.142857 38.2857143,367.24 38.2857143,368.580952 C38.2857143,368.946667 38.0141876,369.190476 37.7038713,369.190476 Z M41.5478191,374.52381 C41.3941577,374.52381 41.2404962,374.485171 41.1252501,374.369255 C40.8947579,374.137424 40.8947579,373.789676 41.1252501,373.557845 C43.9295718,370.737227 43.9295718,366.139235 41.1252501,363.318617 C40.8947579,363.086786 40.8947579,362.739039 41.1252501,362.507207 C41.3557423,362.275375 41.7014806,362.275375 41.9319728,362.507207 C45.1972789,365.791487 45.1972789,371.123613 41.9319728,374.407894 C41.8551421,374.485171 41.7014806,374.52381 41.5478191,374.52381 Z M44.2163662,376.809524 C44.0622195,376.809524 43.9080727,376.771806 43.7924627,376.658652 C43.5612426,376.432343 43.5612426,376.092881 43.7924627,375.866572 C48.0700344,371.679868 48.0700344,364.8529 43.7924627,360.628477 C43.5612426,360.402169 43.5612426,360.062706 43.7924627,359.836398 C44.0236828,359.61009 44.3705129,359.61009 44.601733,359.836398 C49.3802816,364.438001 49.3802816,371.981612 44.6402697,376.620934 C44.5246597,376.734088 44.3705129,376.809524 44.2163662,376.809524 Z M46.888241,379.47619 C46.7327502,379.47619 46.5772595,379.438384 46.4606414,379.324963 C46.2274052,379.098122 46.2274052,378.75786 46.4606414,378.531018 C52.2915452,372.859986 52.2915452,363.635108 46.4606414,357.964075 C46.2274052,357.737234 46.2274052,357.396972 46.4606414,357.170131 C46.6938776,356.94329 47.0437318,356.94329 47.2769679,357.170131 C53.574344,363.294846 53.574344,373.238055 47.2769679,379.324963 C47.1992225,379.400577 47.0437318,379.47619 46.888241,379.47619 Z M30.4905962,374.52381 C30.3369348,374.52381 30.1832733,374.485293 30.0680272,374.369743 C26.8027211,371.09584 26.8027211,365.780561 30.0680272,362.506658 C30.2985194,362.275559 30.6442577,362.275559 30.8747499,362.506658 C31.1052421,362.737757 31.1052421,363.084405 30.8747499,363.315504 C28.0704282,366.12721 28.0704282,370.710675 30.8747499,373.52238 C31.1052421,373.753479 31.1052421,374.100128 30.8747499,374.331227 C30.7979192,374.485293 30.6442577,374.52381 30.4905962,374.52381 Z M27.8180164,377.190476 C27.6627237,377.190476 27.507431,377.152005 27.3909615,377.03659 C22.6157113,372.266113 22.6157113,364.571794 27.3909615,359.839789 C27.6239005,359.608959 27.9733091,359.608959 28.2062481,359.839789 C28.4391871,360.070618 28.4391871,360.416863 28.2062481,360.647692 C23.8968759,364.918039 23.8968759,371.881397 28.2062481,376.190215 C28.4391871,376.421044 28.4391871,376.767289 28.2062481,376.998118 C28.1286018,377.113533 27.9733091,377.190476 27.8180164,377.190476 Z M25.1506317,379.47619 C24.9951409,379.47619 24.8396501,379.438384 24.7230321,379.324963 C18.425656,373.200248 18.425656,363.257039 24.7230321,357.170131 C24.9562682,356.94329 25.3061224,356.94329 25.5393586,357.170131 C25.7725948,357.396972 25.7725948,357.737234 25.5393586,357.964075 C19.7084548,363.635108 19.7084548,372.859986 25.5393586,378.531018 C25.7725948,378.75786 25.7725948,379.098122 25.5393586,379.324963 C25.4616132,379.400577 25.3061224,379.47619 25.1506317,379.47619 Z" id="icon-/-sensor"></path>
        </g>
    </g>
</svg>