<?xml version="1.0" encoding="UTF-8"?>
<svg width="20px" height="20px" viewBox="0 0 20 20" version="1.1" xmlns="http://www.w3.org/2000/svg" xmlns:xlink="http://www.w3.org/1999/xlink">
    <!-- Generator: Sketch 46.2 (44496) - http://www.bohemiancoding.com/sketch -->
    <title>icon/settings-pressed</title>
    <desc>Created with Sketch.</desc>
    <defs></defs>
    <g id="Page-1" stroke="none" stroke-width="1" fill="none" fill-rule="evenodd" stroke-linecap="round" stroke-linejoin="round">
        <g id="13---landing-view" transform="translate(-304.000000, -629.000000)" stroke="#FFFFFF" stroke-width="1.5">
            <g id="Tab-Bar---5-Tabs" transform="translate(0.000000, 618.000000)">
                <g id="Tab-5" transform="translate(290.000000, 0.000000)">
                    <g id="icon/settings-pressed" transform="translate(14.000000, 11.000000)">
                        <path d="M18.9166,11.7083 L18.9166,7.9583 L16.7456,7.9583 C16.3556,7.9583 16.0256,7.7053 15.8776,7.3443 C15.8736,7.3363 15.8706,7.3283 15.8666,7.3203 C15.7166,6.9593 15.7706,6.5473 16.0466,6.2713 L17.5816,4.7363 L14.9306,2.0843 L13.3946,3.6213 C13.1186,3.8963 12.7066,3.9513 12.3466,3.8013 C12.3386,3.7973 12.3296,3.7943 12.3216,3.7913 C11.9606,3.6423 11.7086,3.3123 11.7086,2.9223 L11.7086,0.7503 L7.9586,0.7503 L7.9586,2.9213 C7.9586,3.3113 7.7056,3.6403 7.3446,3.7893 C7.3366,3.7933 7.3286,3.7963 7.3196,3.8003 C6.9596,3.9503 6.5476,3.8963 6.2716,3.6203 L4.7366,2.0843 L2.0846,4.7363 L3.6206,6.2723 C3.8966,6.5483 3.9516,6.9603 3.8006,7.3203 C3.7976,7.3283 3.7946,7.3363 3.7906,7.3443 C3.6426,7.7053 3.3126,7.9583 2.9226,7.9583 L0.7496,7.9583 L0.7496,11.7083 L2.9206,11.7083 C3.3116,11.7083 3.6406,11.9613 3.7896,12.3213 C3.7926,12.3303 3.7966,12.3383 3.7996,12.3463 C3.9496,12.7073 3.8956,13.1193 3.6196,13.3953 L2.0846,14.9303 L4.7366,17.5823 L6.2726,16.0463 C6.5486,15.7703 6.9596,15.7153 7.3196,15.8653 C7.3286,15.8693 7.3366,15.8723 7.3446,15.8753 C7.7056,16.0243 7.9586,16.3543 7.9586,16.7443 L7.9586,18.9163 L11.7086,18.9163 L11.7086,16.7463 C11.7086,16.3553 11.9606,16.0263 12.3216,15.8773 C12.3296,15.8733 12.3386,15.8703 12.3466,15.8673 C12.7066,15.7163 13.1186,15.7703 13.3946,16.0463 L14.9306,17.5823 L17.5816,14.9303 L16.0456,13.3943 C15.7696,13.1183 15.7156,12.7063 15.8656,12.3463 C15.8686,12.3383 15.8726,12.3303 15.8756,12.3223 C16.0246,11.9613 16.3536,11.7083 16.7446,11.7083 L18.9166,11.7083 Z M12.6536,9.8333 C12.6536,11.3913 11.3906,12.6533 9.8336,12.6533 C8.2756,12.6533 7.0126,11.3913 7.0126,9.8333 C7.0126,8.2753 8.2756,7.0133 9.8336,7.0133 C11.3906,7.0133 12.6536,8.2753 12.6536,9.8333 Z" id="Combined-Shape"></path>
                    </g>
                </g>
            </g>
        </g>
    </g>
</svg>