<?xml version="1.0" encoding="UTF-8"?>
<svg width="21px" height="23px" viewBox="0 0 21 23" version="1.1" xmlns="http://www.w3.org/2000/svg" xmlns:xlink="http://www.w3.org/1999/xlink">
    <!-- Generator: Sketch 46.2 (44496) - http://www.bohemiancoding.com/sketch -->
    <title>icon/user</title>
    <desc>Created with Sketch.</desc>
    <defs></defs>
    <g id="Page-1" stroke="none" stroke-width="1" fill="none" fill-rule="evenodd">
        <g id="1--Login" transform="translate(-32.000000, -350.000000)" fill-rule="nonzero" fill="#FFFFFF">
            <g id="Login" transform="translate(32.000000, 350.000000)">
                <g id="Username">
                    <path d="M10.5,11 C12.9848576,11 15,8.98485763 15,6.5 L15,5.5 C15,3.01514237 12.9848576,1 10.5,1 C8.01514237,1 6,3.01514237 6,5.5 L6,6.5 C6,8.98485763 8.01514237,11 10.5,11 Z M10.5,12 C7.46285763,12 5,9.53714237 5,6.5 L5,5.5 C5,2.46285763 7.46285763,0 10.5,0 C13.5371424,0 16,2.46285763 16,5.5 L16,6.5 C16,9.53714237 13.5371424,12 10.5,12 Z M20,22 L20,20.408 C20,18.8294587 18.9500812,17.4471037 17.4343336,17.0343525 C15.073991,16.3900563 12.7017018,16 10.5,16 C8.29829822,16 5.92600904,16.3900563 3.56537068,17.0344331 C2.04991884,17.4471037 1,18.8294587 1,20.408 L1,22 L20,22 Z M21,20.408 L21,23 L0,23 L0,20.408 C0,18.3795478 1.35077782,16.6010728 3.30233355,16.0696475 C5.74159561,15.4038088 8.19752661,15 10.5,15 C12.8024734,15 15.2584044,15.4038088 17.6973707,16.0695669 C19.6492222,16.6010728 21,18.3795478 21,20.408 Z" id="icon/user"></path>
                </g>
            </g>
        </g>
    </g>
</svg>