<?xml version="1.0" encoding="UTF-8"?>
<svg width="84px" height="59px" viewBox="0 0 84 59" version="1.1" xmlns="http://www.w3.org/2000/svg" xmlns:xlink="http://www.w3.org/1999/xlink">
    <!-- Generator: Sketch 46.2 (44496) - http://www.bohemiancoding.com/sketch -->
    <title>icon / medium / sensor</title>
    <desc>Created with Sketch.</desc>
    <defs></defs>
    <g id="Page-1" stroke="none" stroke-width="1" fill="none" fill-rule="evenodd">
        <g id="9---step-2-name-sensor" transform="translate(-146.000000, -125.000000)" fill-rule="nonzero" fill="#FFFFFF">
            <g id="noun_974643_cc" transform="translate(146.000000, 125.000000)">
                <path d="M42.5,42 C36.2,42 31,36.8 31,30.5 C31,24.2 36.2,19 42.5,19 C48.8,19 54,24.2 54,30.5 C54,36.8 48.8,42 42.5,42 Z M42.5,22 C37.8,22 34,25.8 34,30.5 C34,35.2 37.8,39 42.5,39 C47.2,39 51,35.2 51,30.5 C51,25.8 47.2,22 42.5,22 Z M46.4726621,32 C45.6580819,32 44.9453243,31.2533333 44.9453243,30.4 C44.9453243,28.5866667 43.5198089,27.2 41.8906485,27.2 C40.9742458,27.2 40.2614882,27.52 39.650553,28.2666667 C39.0396179,28.9066667 38.1232151,29.0133333 37.51228,28.3733333 C36.9013448,27.7333333 36.7995223,26.7733333 37.4104575,26.1333333 C38.5305052,24.8533333 40.2614882,24 41.8906485,24 C45.2507918,24 48,26.88 48,30.4 C48,31.36 47.2872423,32 46.4726621,32 Z M56.5630252,46 C56.1596639,46 55.7563025,45.8985737 55.4537815,45.5942948 C54.8487395,44.9857369 54.8487395,44.0729002 55.4537815,43.4643423 C62.8151261,36.0602219 62.8151261,23.9904913 55.4537815,16.5863708 C54.8487395,15.977813 54.8487395,15.0649762 55.4537815,14.4564184 C56.0588235,13.8478605 56.9663866,13.8478605 57.5714286,14.4564184 C66.1428571,23.0776545 66.1428571,37.0744849 57.5714286,45.6957211 C57.3697479,45.8985737 56.9663866,46 56.5630252,46 Z M63.5679613,52 C63.1633261,52 62.7586909,51.9009901 62.4552146,51.6039604 C61.8482618,51.009901 61.8482618,50.1188119 62.4552146,49.5247525 C73.6838404,38.5346535 73.6838404,20.6138614 62.4552146,9.52475248 C61.8482618,8.93069307 61.8482618,8.03960396 62.4552146,7.44554455 C63.0621673,6.85148515 63.9725964,6.85148515 64.5795492,7.44554455 C77.1232393,19.5247525 77.1232393,39.3267327 64.680708,51.5049505 C64.3772316,51.8019802 63.9725964,52 63.5679613,52 Z M70.5816327,59 C70.1734694,59 69.7653061,58.9007569 69.4591837,58.6030278 C68.8469388,58.0075694 68.8469388,57.1143818 69.4591837,56.5189235 C84.7653061,41.6324643 84.7653061,17.4171573 69.4591837,2.53069807 C68.8469388,1.9352397 68.8469388,1.04205214 69.4591837,0.446593776 C70.0714286,-0.148864592 70.9897959,-0.148864592 71.6020408,0.446593776 C88.1326531,16.5239697 88.1326531,42.6248949 71.6020408,58.6030278 C71.3979592,58.8015139 70.9897959,59 70.5816327,59 Z M27.5378151,46 C27.1344538,46 26.7310924,45.8988942 26.4285714,45.5955766 C17.8571429,37.0015798 17.8571429,23.0489731 26.4285714,14.4549763 C27.0336134,13.8483412 27.9411765,13.8483412 28.5462185,14.4549763 C29.1512605,15.0616114 29.1512605,15.971564 28.5462185,16.5781991 C21.1848739,23.9589258 21.1848739,35.9905213 28.5462185,43.371248 C29.1512605,43.9778831 29.1512605,44.8878357 28.5462185,45.4944708 C28.3445378,45.8988942 27.9411765,46 27.5378151,46 Z M20.522293,53 C20.1146497,53 19.7070064,52.8990121 19.4012739,52.5960483 C6.86624204,40.0735456 6.86624204,19.8759605 19.4012739,7.45444566 C20.0127389,6.84851811 20.9299363,6.84851811 21.5414013,7.45444566 C22.1528662,8.06037322 22.1528662,8.96926454 21.5414013,9.5751921 C10.2292994,20.7848518 10.2292994,39.0636663 21.5414013,50.3743139 C22.1528662,50.9802415 22.1528662,51.8891328 21.5414013,52.4950604 C21.3375796,52.7980241 20.9299363,53 20.522293,53 Z M13.5204082,59 C13.1122449,59 12.7040816,58.9007569 12.3979592,58.6030278 C-4.13265306,42.5256518 -4.13265306,16.4247267 12.3979592,0.446593776 C13.0102041,-0.148864592 13.9285714,-0.148864592 14.5408163,0.446593776 C15.1530612,1.04205214 15.1530612,1.9352397 14.5408163,2.53069807 C-0.765306122,17.4171573 -0.765306122,41.6324643 14.5408163,56.5189235 C15.1530612,57.1143818 15.1530612,58.0075694 14.5408163,58.6030278 C14.3367347,58.8015139 13.9285714,59 13.5204082,59 Z" id="icon-/-medium-/-sensor"></path>
            </g>
        </g>
    </g>
</svg>