<?xml version="1.0" encoding="UTF-8"?>
<svg width="77px" height="59px" viewBox="0 0 77 59" version="1.1" xmlns="http://www.w3.org/2000/svg" xmlns:xlink="http://www.w3.org/1999/xlink">
    <!-- Generator: Sketch 46.2 (44496) - http://www.bohemiancoding.com/sketch -->
    <title>icon / large / faucet</title>
    <desc>Created with Sketch.</desc>
    <defs></defs>
    <g id="Page-1" stroke="none" stroke-width="1" fill="none" fill-rule="evenodd">
        <g id="11---step-3-test-stopcock" transform="translate(-149.000000, -199.000000)" fill-rule="nonzero" fill="#0FCBFB">
            <g id="Icon" transform="translate(113.000000, 150.000000)">
                <g id="Group" transform="translate(36.000000, 49.000000)">
                    <g id="icon-/-large-/-faucet">
                        <g>
                            <path d="M29.4325967,17.9610109 C28.7280393,17.9610109 28.1539082,18.5356196 28.1539082,19.2436196 L28.1539082,37.2001413 C28.1539082,37.9081413 28.7280393,38.48275 29.4325967,38.48275 L47.3342361,38.48275 C48.0387934,38.48275 48.6129246,37.9081413 48.6129246,37.2001413 L48.6129246,19.2436196 C48.6129246,18.5356196 48.0387934,17.9610109 47.3342361,17.9610109 L29.4325967,17.9610109 Z M47.3342361,41.0479674 L29.4325967,41.0479674 C27.3176459,41.0479674 25.5965311,39.3215761 25.5965311,37.2001413 L25.5965311,19.2436196 C25.5965311,17.1221848 27.3176459,15.3957935 29.4325967,15.3957935 L47.3342361,15.3957935 C49.4491869,15.3957935 51.1703016,17.1221848 51.1703016,19.2436196 L51.1703016,37.2001413 C51.1703016,39.3215761 49.4491869,41.0479674 47.3342361,41.0479674 L47.3342361,41.0479674 Z M3.85882623,20.5262283 C3.15426885,20.5262283 2.5801377,21.100837 2.5801377,21.808837 L2.5801377,34.6349239 C2.5801377,35.3429239 3.15426885,35.9175326 3.85882623,35.9175326 L25.5965311,35.9175326 L25.5965311,20.5262283 L3.85882623,20.5262283 Z M26.8752197,38.48275 L3.85882623,38.48275 C1.74387541,38.48275 0.0227606557,36.7563587 0.0227606557,34.6349239 L0.0227606557,21.808837 C0.0227606557,19.6874022 1.74387541,17.9610109 3.85882623,17.9610109 L26.8752197,17.9610109 C27.5810557,17.9610109 28.1539082,18.534337 28.1539082,19.2436196 L28.1539082,37.2001413 C28.1539082,37.9094239 27.5810557,38.48275 26.8752197,38.48275 L26.8752197,38.48275 Z M51.1703016,35.9175326 L72.9080066,35.9175326 C73.6138426,35.9175326 74.1866951,35.3429239 74.1866951,34.6349239 L74.1866951,21.808837 C74.1866951,21.100837 73.6138426,20.5262283 72.9080066,20.5262283 L51.1703016,20.5262283 L51.1703016,35.9175326 Z M72.9080066,38.48275 L49.8916131,38.48275 C49.185777,38.48275 48.6129246,37.9094239 48.6129246,37.2001413 L48.6129246,19.2436196 C48.6129246,18.534337 49.185777,17.9610109 49.8916131,17.9610109 L72.9080066,17.9610109 C75.0229574,17.9610109 76.7440721,19.6874022 76.7440721,21.808837 L76.7440721,34.6349239 C76.7440721,36.7563587 75.0229574,38.48275 72.9080066,38.48275 L72.9080066,38.48275 Z M62.6784984,25.656663 L49.8916131,25.656663 C49.185777,25.656663 48.6129246,25.083337 48.6129246,24.3740543 C48.6129246,23.6647717 49.185777,23.0914457 49.8916131,23.0914457 L62.6784984,23.0914457 C63.3856131,23.0914457 63.9571869,23.6647717 63.9571869,24.3740543 C63.9571869,25.083337 63.3856131,25.656663 62.6784984,25.656663 M69.071941,24.3740543 C69.071941,23.6660543 68.4990885,23.0914457 67.7932525,23.0914457 C67.0874164,23.0914457 66.5145639,23.6660543 66.5145639,24.3740543 C66.5145639,25.0820543 67.0874164,25.656663 67.7932525,25.656663 C68.4990885,25.656663 69.071941,25.0820543 69.071941,24.3740543 M75.4653836,25.656663 L72.9080066,25.656663 C72.2008918,25.656663 71.629318,25.083337 71.629318,24.3740543 C71.629318,23.6647717 72.2008918,23.0914457 72.9080066,23.0914457 L75.4653836,23.0914457 C76.1724984,23.0914457 76.7440721,23.6647717 76.7440721,24.3740543 C76.7440721,25.083337 76.1724984,25.656663 75.4653836,25.656663 M34.5476066,15.3951522 L42.2197377,15.3951522 L42.2197377,12.8299348 L34.5476066,12.8299348 L34.5476066,15.3951522 Z M43.4984262,17.9603696 L33.268918,17.9603696 C32.563082,17.9603696 31.9902295,17.3870435 31.9902295,16.6777609 L31.9902295,11.5473261 C31.9902295,10.8393261 32.563082,10.2647174 33.268918,10.2647174 L43.4984262,10.2647174 C44.2042623,10.2647174 44.7771148,10.8393261 44.7771148,11.5473261 L44.7771148,16.6777609 C44.7771148,17.3870435 44.2042623,17.9603696 43.4984262,17.9603696 L43.4984262,17.9603696 Z M34.5473508,10.2653587 L45.6067279,10.2653587 L51.6510885,5.41581522 C51.8774164,5.23368478 52.1587279,5.13492391 52.4489902,5.13492391 L74.1866951,5.13492391 L74.1866951,2.56970652 L50.3404328,2.56970652 L44.2973508,7.41925 C44.0697443,7.60138043 43.7884328,7.7001413 43.4981705,7.7001413 L34.5473508,7.7001413 L34.5473508,10.2653587 Z M46.0555475,12.8305761 L33.2686623,12.8305761 C32.5628262,12.8305761 31.9899738,12.25725 31.9899738,11.5479674 L31.9899738,6.41753261 C31.9899738,5.70825 32.5628262,5.13492391 33.2686623,5.13492391 L43.0493508,5.13492391 L49.0937115,0.285380435 C49.3200393,0.10325 49.6013508,0.00448913043 49.8916131,0.00448913043 L75.4653836,0.00448913043 C76.1724984,0.00448913043 76.7440721,0.577815217 76.7440721,1.28709783 L76.7440721,6.41753261 C76.7440721,7.12681522 76.1724984,7.7001413 75.4653836,7.7001413 L52.8978098,7.7001413 L46.8547279,12.5496848 C46.6271213,12.7318152 46.3458098,12.8305761 46.0555475,12.8305761 L46.0555475,12.8305761 Z M37.1047279,5.13492391 L39.6621049,5.13492391 L39.6621049,3.85231522 C39.6621049,3.14431522 39.0879738,2.56970652 38.3834164,2.56970652 C37.678859,2.56970652 37.1047279,3.14431522 37.1047279,3.85231522 L37.1047279,5.13492391 Z M40.9407934,7.7001413 L35.8260393,7.7001413 C35.1202033,7.7001413 34.5473508,7.12681522 34.5473508,6.41753261 L34.5473508,3.85231522 C34.5473508,1.73088043 36.2684656,0.00448913043 38.3834164,0.00448913043 C40.4983672,0.00448913043 42.219482,1.73088043 42.219482,3.85231522 L42.219482,6.41753261 C42.219482,7.12681522 41.6466295,7.7001413 40.9407934,7.7001413 L40.9407934,7.7001413 Z M7.6948918,38.48275 C6.98905574,38.48275 6.41620328,37.9094239 6.41620328,37.2001413 L6.41620328,32.0697065 C6.41620328,31.3604239 6.98905574,30.7870978 7.6948918,30.7870978 C8.40072787,30.7870978 8.97358033,31.3604239 8.97358033,32.0697065 L8.97358033,37.2001413 C8.97358033,37.9094239 8.40072787,38.48275 7.6948918,38.48275 M12.8096459,33.3523152 C12.1038098,33.3523152 11.5309574,32.7789891 11.5309574,32.0697065 L11.5309574,26.9392717 C11.5309574,26.2299891 12.1038098,25.656663 12.8096459,25.656663 C13.515482,25.656663 14.0883344,26.2299891 14.0883344,26.9392717 L14.0883344,32.0697065 C14.0883344,32.7789891 13.515482,33.3523152 12.8096459,33.3523152 M12.8096459,33.3523152 L7.6948918,33.3523152 C6.98905574,33.3523152 6.41620328,32.7789891 6.41620328,32.0697065 C6.41620328,31.3604239 6.98905574,30.7870978 7.6948918,30.7870978 L12.8096459,30.7870978 C13.515482,30.7870978 14.0883344,31.3604239 14.0883344,32.0697065 C14.0883344,32.7789891 13.515482,33.3523152 12.8096459,33.3523152 M17.9244,28.2218804 L12.8096459,28.2218804 C12.1038098,28.2218804 11.5309574,27.6485543 11.5309574,26.9392717 C11.5309574,26.2299891 12.1038098,25.656663 12.8096459,25.656663 L17.9244,25.656663 C18.6302361,25.656663 19.2030885,26.2299891 19.2030885,26.9392717 C19.2030885,27.6485543 18.6302361,28.2218804 17.9244,28.2218804 M7.69553115,44.5512848 L4.98471148,48.3965457 C3.28021967,50.7642413 3.22907213,53.3333065 4.84533443,54.9532413 C6.36825246,56.4821109 9.02153115,56.4821109 10.5457279,54.9532413 C11.1441541,54.3529804 12.9662852,52.5265457 10.3641541,48.3336978 L7.69553115,44.5512848 Z M7.69553115,58.7035891 C5.93477705,58.7035891 4.28143279,58.0161109 3.03599016,56.76685 C0.524645902,54.2490891 0.470940984,50.2858283 2.90428525,46.9061543 L6.65084262,41.5897413 C7.13035082,40.9086761 8.25943279,40.9086761 8.73894098,41.5897413 L12.4931705,46.9164152 C15.5735311,51.8711326 14.1132689,55.0019804 12.3537934,56.76685 C11.1083508,58.0161109 9.45372787,58.7035891 7.69553115,58.7035891 L7.69553115,58.7035891 Z"></path>
                        </g>
                    </g>
                </g>
            </g>
        </g>
    </g>
</svg>