<?xml version="1.0" encoding="UTF-8"?>
<svg width="77px" height="77px" viewBox="0 0 77 77" version="1.1" xmlns="http://www.w3.org/2000/svg" xmlns:xlink="http://www.w3.org/1999/xlink">
    <!-- Generator: Sketch 46.2 (44496) - http://www.bohemiancoding.com/sketch -->
    <title>icon / large / house</title>
    <desc>Created with Sketch.</desc>
    <defs></defs>
    <g id="Page-1" stroke="none" stroke-width="1" fill="none" fill-rule="evenodd">
        <g id="13---landing-view" transform="translate(-143.000000, -55.000000)" fill-rule="nonzero" fill="#FFFFFF">
            <g id="icon-/-large-/-house" transform="translate(143.000000, 55.000000)">
                <path d="M49.3657143,41.9003124 C50.2405029,41.9003124 50.9504762,41.190339 50.9504762,40.3155505 C50.9504762,39.4407619 50.2405029,38.7307886 49.3657143,38.7307886 L27.1790476,38.7307886 C26.304259,38.7307886 25.5942857,39.4407619 25.5942857,40.3155505 L25.5942857,62.5022171 C25.5942857,63.3770057 26.304259,64.086979 27.1790476,64.086979 L36.687619,64.086979 C37.5624076,64.086979 38.272381,63.3770057 38.272381,62.5022171 C38.272381,61.6274286 37.5624076,60.9174552 36.687619,60.9174552 L28.7638095,60.9174552 L28.7638095,41.9003124 C28.7638095,41.9003124 49.3657143,41.9003124 49.3657143,41.9003124 Z" id="Shape"></path>
                <path d="M44.6114286,73.5955505 L12.9161905,73.5955505 L12.9161905,37.1460267 C12.9161905,36.2712381 12.2062171,35.5612648 11.3314286,35.5612648 L5.64847238,35.5612648 L36.687619,4.51894857 C37.5243733,3.68219429 39.0140495,3.67902476 39.8539733,4.51894857 L51.4132267,16.0782019 C51.8696381,16.5314438 52.5479162,16.6740724 53.1406171,16.4205105 C53.7333181,16.1796267 54.12,15.5964343 54.12,14.95936 L54.12,3.86602667 L63.6285714,3.86602667 L63.6285714,27.6374552 C63.6285714,28.0590019 63.7965562,28.4615314 64.0944914,28.7594667 L70.8962895,35.5612648 L65.2133333,35.5612648 C64.3385448,35.5612648 63.6285714,36.2712381 63.6285714,37.1460267 L63.6285714,38.7307886 C63.6285714,39.6055771 64.3385448,40.3155505 65.2133333,40.3155505 C66.0881219,40.3155505 66.7980952,39.6055771 66.7980952,38.7307886 L74.7187352,38.7307886 C75.358979,38.7307886 75.9390019,38.3441067 76.1830552,37.7514057 C76.4302781,37.1587048 76.2939886,36.4772571 75.8407467,36.0240152 L66.7949257,26.9781943 L66.7949257,2.27492571 C66.7949257,1.40013714 66.0849524,0.69016381 65.2101638,0.69016381 L52.5320686,0.69016381 C51.65728,0.69016381 50.9473067,1.40013714 50.9473067,2.27492571 L50.9473067,11.1274057 L42.0948267,2.27492571 C40.0568229,0.233752381 36.4942781,0.230582857 34.4467657,2.27492571 L0.700845714,36.0240152 C0.24760381,36.4772571 0.111314286,37.1587048 0.358537143,37.7514057 C0.602590476,38.3441067 1.18261333,38.7307886 1.82285714,38.7307886 L9.74666667,38.7307886 L9.74666667,75.1803124 C9.74666667,76.055101 10.45664,76.7650743 11.3314286,76.7650743 L44.6114286,76.7650743 C45.4862171,76.7650743 46.1961905,76.055101 46.1961905,75.1803124 C46.1961905,74.3055238 45.4862171,73.5955505 44.6114286,73.5955505 Z" id="Shape"></path>
                <path d="M58.8774552,41.9003124 C49.2642895,41.9003124 41.4450743,49.7195276 41.4450743,59.3326933 C41.4450743,68.945859 49.2642895,76.7650743 58.8774552,76.7650743 C68.490621,76.7650743 76.3098362,68.945859 76.3098362,59.3326933 C76.3098362,49.7195276 68.490621,41.9003124 58.8774552,41.9003124 Z M58.8774552,73.5955505 C51.0138667,73.5955505 44.6145981,67.1962819 44.6145981,59.3326933 C44.6145981,51.4691048 51.0138667,45.0698362 58.8774552,45.0698362 C66.7442133,45.0698362 73.1403124,51.4691048 73.1403124,59.3326933 C73.1403124,67.1962819 66.7410438,73.5955505 58.8774552,73.5955505 Z" id="Shape"></path>
                <path d="M69.501699,51.8716343 C68.8836419,51.2535771 67.8789029,51.2535771 67.2608457,51.8716343 L55.7047619,63.4277181 L50.4877257,58.2106819 C49.8696686,57.5926248 48.8649295,57.5926248 48.2468724,58.2106819 C47.6288152,58.828739 47.6288152,59.8334781 48.2468724,60.4515352 L54.58592,66.7905829 C54.8965333,67.0980267 55.3022324,67.2533333 55.7079314,67.2533333 C56.1136305,67.2533333 56.5193295,67.0980267 56.8236038,66.7905829 L69.501699,54.1124876 C70.1197562,53.4976 70.1197562,52.4896914 69.501699,51.8716343 Z" id="icon-/-checkmark"></path>
            </g>
        </g>
    </g>
</svg>