<?xml version="1.0" encoding="UTF-8"?>
<svg width="54px" height="53px" viewBox="0 0 54 53" version="1.1" xmlns="http://www.w3.org/2000/svg" xmlns:xlink="http://www.w3.org/1999/xlink">
    <!-- Generator: Sketch 46.2 (44496) - http://www.bohemiancoding.com/sketch -->
    <title>icon / large / qr-code</title>
    <desc>Created with Sketch.</desc>
    <defs></defs>
    <g id="Page-1" stroke="none" stroke-width="1" fill="none" fill-rule="evenodd">
        <g id="3--step-1-qr-code" transform="translate(-159.000000, -198.000000)" fill-rule="nonzero" fill="#0FCBFB">
            <g id="Icon" transform="translate(113.000000, 150.000000)">
                <g id="Group" transform="translate(46.000000, 48.000000)">
                    <path d="M3.85853857,3.85812427 L12,3.85812427 L12,0 L3.85853857,0 L0,0 L0,3.85812427 L0,12 L3.85853857,12 L3.85853857,3.85812427 Z M3.85853857,41 L0,41 L0,49.1416794 L0,53 L3.85853857,53 L12,53 L12,49.1416794 L3.85853857,49.1416794 L3.85853857,41 Z M50.1416794,49.1416794 L42,49.1416794 L42,53 L50.1416794,53 L54,53 L54,49.1416794 L54,41 L50.1416794,41 L50.1416794,49.1416794 Z M50.1416794,0 L42,0 L42,3.85812427 L50.1416794,3.85812427 L50.1416794,12 L54,12 L54,3.85812427 L54,0 L50.1416794,0 Z M8,27 L27,27 L27,8 L8,8 L8,27 Z M11.8465432,11.846673 L23.1534568,11.846673 L23.1534568,23.153327 L11.8465432,23.153327 L11.8465432,11.846673 Z M13,13 L20,13 L20,20 L13,20 L13,13 Z M8,48 L27,48 L27,29 L8,29 L8,48 Z M11.8465432,32.846673 L23.1534568,32.846673 L23.1534568,44.1539681 L11.8465432,44.1539681 L11.8465432,32.846673 Z M13,34 L20,34 L20,41 L13,41 L13,34 Z M47.9993589,8 L29,8 L29,27 L48,27 L48,8 L47.9993589,8 Z M44.1528157,23.153327 L32.8465432,23.153327 L32.8465432,11.846673 L44.1534568,11.846673 L44.1534568,23.153327 L44.1528157,23.153327 Z M35,13 L42,13 L42,20 L35,20 L35,13 Z M29,29 L41,29 L41,33 L29,33 L29,29 Z M29,34 L33,34 L33,47 L29,47 L29,34 Z M42.5594949,46 L47,46 L47,42.2994924 L42.8277341,42.2994924 L42.8277341,40 L38.0266857,40 L38.0266857,42.2994924 L34,42.2994924 L34,46 L38.4398856,46 L38.4398856,43.7010933 L42.5594949,43.7010933 L42.5594949,46 Z M36,34.286442 L36,38 L43.0628824,38 L43.3700997,38 L47,38 L47,29 L43.0628824,29 L43.0628824,34.286442 L36,34.286442 Z" id="icon-/-large-/-qr-code"></path>
                </g>
            </g>
        </g>
    </g>
</svg>